<svg xmlns="http://www.w3.org/2000/svg" version="1.1" xmlns:xlink="http://www.w3.org/1999/xlink" xmlns:svgjs="http://svgjs.com/svgjs" width="174" height="181"><svg width="174" height="181" viewBox="0 0 174 181" fill="none" xmlns="http://www.w3.org/2000/svg">
<g filter="url(#filter0_d_4_58)">
<path d="M0 84C0 37.6081 37.3842 0 83.5 0C129.616 0 167 37.6081 167 84C167 130.392 129.616 168 83.5 168C37.3842 168 0 130.392 0 84Z" fill="#C8DE7D"></path>
<path d="M27.8456 95.2441C27.6142 94.9901 27.4353 94.6832 27.3091 94.3234C27.1829 93.9636 27.1197 93.5932 27.1197 93.2122C27.8351 93.2122 28.34 93.0958 28.6346 92.863C28.9291 92.6302 29.0764 92.2174 29.0764 91.6248V76.7032C29.0764 76.1106 28.9291 75.6979 28.6346 75.4651C28.34 75.2111 27.8351 75.0841 27.1197 75.0841C27.1197 74.7031 27.1829 74.3433 27.3091 74.0047C27.4353 73.6448 27.6142 73.338 27.8456 73.084H35.6407C36.1036 73.5708 36.335 74.2375 36.335 75.0841C35.6197 75.0841 35.0937 75.2111 34.757 75.4651C34.4204 75.7191 34.2521 76.1318 34.2521 76.7032V92.5455H35.4198C36.9557 92.5455 38.0918 92.0375 38.8282 91.0216C39.5856 90.0057 39.9643 88.577 39.9643 86.7356H42.1734C42.5311 87.0108 42.8151 87.6034 43.0255 88.5135C43.2359 89.4236 43.3411 90.3126 43.3411 91.1803C43.3411 92.5138 43.1097 93.5297 42.6468 94.2282C42.1839 94.9054 41.4265 95.2441 40.3746 95.2441H27.8456Z" fill="#228855"></path>
<path d="M51.329 72.7982C51.329 73.7083 51.045 74.4385 50.4769 74.9888C49.9299 75.518 49.1935 75.7825 48.2678 75.7825C47.3631 75.7825 46.6372 75.518 46.0902 74.9888C45.5642 74.4385 45.3012 73.7083 45.3012 72.7982C45.3012 71.9093 45.5747 71.1897 46.1218 70.6394C46.6898 70.0891 47.4262 69.8139 48.3309 69.8139C49.2356 69.8139 49.9614 70.0891 50.5085 70.6394C51.0555 71.1897 51.329 71.9093 51.329 72.7982ZM50.7294 91.8153C50.7294 92.4291 50.8767 92.8736 51.1712 93.1487C51.4868 93.4027 51.9602 93.5297 52.5914 93.5297C52.5914 94.1858 52.3494 94.7573 51.8655 95.2441H44.7331C44.2492 94.7573 44.0073 94.1858 44.0073 93.5297C44.6385 93.5297 45.0908 93.4027 45.3643 93.1487C45.6589 92.8736 45.8062 92.4185 45.8062 91.7836V82.5766C45.8062 81.984 45.6589 81.5607 45.3643 81.3067C45.0908 81.0527 44.5438 80.9257 43.7233 80.9257V79.5288C44.2282 79.2113 45.0803 78.8833 46.2795 78.5446C47.4998 78.1848 48.5308 78.0049 49.3723 78.0049C49.8562 78.0049 50.2034 78.1213 50.4138 78.3541C50.6242 78.5658 50.7294 78.9362 50.7294 79.4653V91.8153Z" fill="#228855"></path>
<path d="M55.7322 74.9254C55.7322 74.3962 55.5744 74.0047 55.2588 73.7507C54.9643 73.4755 54.4067 73.3379 53.5862 73.3379V72.068C54.3436 71.6447 55.3009 71.2849 56.4581 70.9886C57.6152 70.6923 58.5515 70.5441 59.2668 70.5441C59.7718 70.5441 60.1295 70.65 60.3398 70.8616C60.5502 71.0733 60.6554 71.4436 60.6554 71.9728V91.7836C60.6554 92.4397 60.7817 92.8947 61.0341 93.1487C61.3077 93.4027 61.76 93.5297 62.3912 93.5297C62.3912 94.1223 62.1387 94.6938 61.6338 95.2441H54.7223C54.2384 94.715 53.9965 94.1435 53.9965 93.5297C54.6066 93.5297 55.0484 93.4027 55.322 93.1487C55.5955 92.8736 55.7322 92.4185 55.7322 91.7836V74.9254Z" fill="#228855"></path>
<path d="M80.2011 78.3859C80.6219 78.8304 80.8323 79.4759 80.8323 80.3225C80.3273 80.3225 79.9276 80.4495 79.633 80.7035C79.3385 80.9575 79.0965 81.3808 78.9072 81.9734L75.3094 93.244C74.3627 96.3341 73.3528 98.5565 72.2798 99.9111C71.2068 101.266 69.8602 101.943 68.2402 101.943C66.9778 101.943 66.01 101.678 65.3368 101.149C64.6635 100.62 64.3269 99.9534 64.3269 99.1491C64.3269 98.6411 64.4426 98.1861 64.674 97.7839C64.9265 97.3818 65.2421 97.0961 65.6208 96.9267C66.1889 97.604 67.0304 97.9427 68.1455 97.9427C68.8188 97.9427 69.4815 97.6146 70.1338 96.9585C70.786 96.3024 71.3225 95.3393 71.7433 94.0694H69.1554L64.2953 82.1957C64.2532 82.0687 64.1481 81.8041 63.9797 81.4019C63.8114 80.9998 63.601 80.7247 63.3486 80.5765C63.0961 80.4072 62.77 80.3225 62.3702 80.3225C62.3702 79.4971 62.5911 78.8515 63.033 78.3859H70.4809C70.9858 78.9362 71.2383 79.5817 71.2383 80.3225C70.2705 80.3225 69.7866 80.8093 69.7866 81.7829C69.7866 82.1639 69.8392 82.5131 69.9444 82.8306L72.8794 91.4343L74.9623 82.4179C75.0254 82.1216 75.057 81.8676 75.057 81.6559C75.057 80.767 74.5415 80.3225 73.5106 80.3225C73.5106 79.4547 73.7104 78.8092 74.1102 78.3859H80.2011Z" fill="#228855"></path>
<path d="M95.561 72.8617C98.801 72.8617 101.115 73.4544 102.504 74.6396C103.893 75.8249 104.587 77.6239 104.587 80.0368C104.587 81.4549 104.24 82.7248 103.545 83.8465C102.851 84.9471 101.799 85.8149 100.39 86.4499C98.9799 87.0848 97.2547 87.4023 95.2138 87.4023H93.8883V90.1962C93.8883 91.0428 93.983 91.6777 94.1724 92.101C94.3617 92.5243 94.6878 92.8207 95.1507 92.99C95.6346 93.1381 96.3605 93.2122 97.3283 93.2122C97.3283 93.5932 97.2652 93.9636 97.1389 94.3234C97.0127 94.6832 96.8444 94.9901 96.634 95.2441H87.4503C87.2189 94.9901 87.04 94.6832 86.9138 94.3234C86.7876 93.9636 86.7244 93.5932 86.7244 93.2122C87.4398 93.2122 87.9447 93.0958 88.2393 92.863C88.5549 92.609 88.7127 92.1963 88.7127 91.6248V76.7032C88.7127 76.1106 88.5549 75.6979 88.2393 75.4651C87.9447 75.2111 87.4398 75.0841 86.7244 75.0841C86.7244 74.3645 86.9559 73.6978 87.4187 73.084C88.8284 73.084 90.743 73.0311 93.1625 72.9252C94.3828 72.8829 95.1823 72.8617 95.561 72.8617ZM99.0956 79.9415C99.0956 78.587 98.78 77.4864 98.1488 76.6397C97.5387 75.7931 96.5078 75.3698 95.056 75.3698C94.5932 75.3698 94.2039 75.4122 93.8883 75.4968V84.799C94.0777 84.8413 94.3512 84.8625 94.7089 84.8625C96.4552 84.8625 97.6228 84.3968 98.2119 83.4656C98.801 82.5343 99.0956 81.3596 99.0956 79.9415Z" fill="#228855"></path>
<path d="M113.346 95.6568C111.032 95.6568 109.181 94.9266 107.792 93.4662C106.403 91.9846 105.709 89.8787 105.709 87.1483C105.709 85.2011 106.035 83.5397 106.688 82.1639C107.361 80.7882 108.297 79.7511 109.496 79.0526C110.696 78.3541 112.084 78.0049 113.662 78.0049C115.177 78.0049 116.502 78.3436 117.639 79.0208C118.796 79.677 119.69 80.6506 120.321 81.9417C120.973 83.2328 121.299 84.799 121.299 86.6404C121.299 88.5664 120.963 90.2067 120.289 91.5613C119.637 92.9159 118.712 93.9424 117.512 94.6409C116.313 95.3182 114.924 95.6568 113.346 95.6568ZM113.599 93.371C114.335 93.371 114.882 92.9477 115.24 92.101C115.598 91.2544 115.777 89.6882 115.777 87.4023C115.777 85.4763 115.682 83.9947 115.493 82.9576C115.303 81.9205 115.04 81.2115 114.704 80.8305C114.367 80.4495 113.936 80.259 113.41 80.259C112.673 80.259 112.116 80.6823 111.737 81.5289C111.379 82.3756 111.2 83.963 111.2 86.2912C111.2 88.196 111.295 89.667 111.484 90.7041C111.674 91.7201 111.937 92.4185 112.273 92.7995C112.631 93.1805 113.073 93.371 113.599 93.371Z" fill="#228855"></path>
<path d="M139.664 94.4504C139.369 94.8314 138.927 95.1277 138.338 95.3393C137.749 95.551 137.118 95.6568 136.445 95.6568C135.834 95.6568 135.235 95.5192 134.646 95.2441C134.057 94.9901 133.646 94.6303 133.415 94.1647C132.994 94.715 132.468 95.0959 131.837 95.3076C131.227 95.5404 130.459 95.6568 129.533 95.6568C128.355 95.6568 127.271 95.3605 126.282 94.7679C125.294 94.1541 124.494 93.2545 123.884 92.0693C123.295 90.8629 123 89.3919 123 87.6563C123 85.6033 123.379 83.8571 124.136 82.4179C124.915 80.9786 125.935 79.8992 127.198 79.1796C128.46 78.46 129.849 78.1002 131.363 78.1002C131.721 78.1002 132.363 78.1425 133.289 78.2271L133.194 76.3223V74.7349C133.194 74.2057 133.047 73.8142 132.752 73.5602C132.458 73.3062 131.9 73.1792 131.079 73.1792V71.8775C131.816 71.4754 132.773 71.1156 133.951 70.7981C135.13 70.4806 136.055 70.3219 136.729 70.3219C137.212 70.3219 137.56 70.4383 137.77 70.6711C138.001 70.8828 138.117 71.2532 138.117 71.7823V91.7201C138.117 92.7572 138.622 93.371 139.632 93.5614L139.664 94.4504ZM131.711 92.9582C132.363 92.9582 132.857 92.7677 133.194 92.3868V81.275C132.752 80.6612 132.163 80.3543 131.427 80.3543C130.501 80.3543 129.754 80.8411 129.186 81.8147C128.639 82.7883 128.365 84.3651 128.365 86.5451C128.365 88.6405 128.67 90.2385 129.281 91.3391C129.912 92.4185 130.722 92.9582 131.711 92.9582Z" fill="#228855"></path>
<path d="M99.9554 65.2652C97.7908 67.178 94.5846 64.7014 95.8627 62.1039L121.098 10.8162C121.833 9.32203 123.742 8.87606 125.057 9.89141L142.56 23.4118C143.874 24.4272 143.939 26.3977 142.694 27.4979L99.9554 65.2652Z" fill="#228855"></path>
</g>
<defs>
<filter id="SvgjsFilter1000" x="0" y="0" width="174" height="181" filterUnits="userSpaceOnUse" color-interpolation-filters="sRGB">
<feFlood flood-opacity="0" result="BackgroundImageFix"></feFlood>
<feColorMatrix in="SourceAlpha" type="matrix" values="0 0 0 0 0 0 0 0 0 0 0 0 0 0 0 0 0 0 127 0" result="hardAlpha"></feColorMatrix>
<feOffset dx="6" dy="12"></feOffset>
<feGaussianBlur stdDeviation="0.5"></feGaussianBlur>
<feColorMatrix type="matrix" values="0 0 0 0 0 0 0 0 0 0 0 0 0 0 0 0 0 0 0.25 0"></feColorMatrix>
<feBlend mode="normal" in2="BackgroundImageFix" result="effect1_dropShadow_4_58"></feBlend>
<feBlend mode="normal" in="SourceGraphic" in2="effect1_dropShadow_4_58" result="shape"></feBlend>
</filter>
</defs>
</svg><style>@media (prefers-color-scheme: light) { :root { filter: none; } }
</style></svg>